<svg width="465" height="150" viewBox="0 0 465 166" fill="none" xmlns="http://www.w3.org/2000/svg">
<path fill-rule="evenodd" clip-rule="evenodd" d="M390.5 0.648438H16.5C7.66344 0.648438 0.5 7.81189 0.5 16.6484V149.648C0.5 158.485 7.66345 165.648 16.5 165.648H391.5C390.948 165.648 390.5 165.201 390.5 164.648C390.5 164.096 390.948 163.648 391.5 163.648H395.5C396.052 163.648 396.5 164.096 396.5 164.648C396.5 165.201 396.052 165.648 395.5 165.648H448.5C457.337 165.648 464.5 158.485 464.5 149.648V16.6484C464.5 7.81188 457.337 0.648438 448.5 0.648438H396.5C396.5 1.20072 396.052 1.64844 395.5 1.64844H391.5C390.948 1.64844 390.5 1.20072 390.5 0.648438ZM390.5 4.64844C390.5 4.09615 390.948 3.64844 391.5 3.64844H395.5C396.052 3.64844 396.5 4.09615 396.5 4.64844C396.5 5.20072 396.052 5.64844 395.5 5.64844H391.5C390.948 5.64844 390.5 5.20072 390.5 4.64844ZM391.5 7.64844C390.948 7.64844 390.5 8.09615 390.5 8.64844C390.5 9.20072 390.948 9.64844 391.5 9.64844H395.5C396.052 9.64844 396.5 9.20072 396.5 8.64844C396.5 8.09615 396.052 7.64844 395.5 7.64844H391.5ZM390.5 12.6484C390.5 12.0962 390.948 11.6484 391.5 11.6484H395.5C396.052 11.6484 396.5 12.0962 396.5 12.6484C396.5 13.2007 396.052 13.6484 395.5 13.6484H391.5C390.948 13.6484 390.5 13.2007 390.5 12.6484ZM391.5 15.6484C390.948 15.6484 390.5 16.0962 390.5 16.6484C390.5 17.2007 390.948 17.6484 391.5 17.6484H395.5C396.052 17.6484 396.5 17.2007 396.5 16.6484C396.5 16.0962 396.052 15.6484 395.5 15.6484H391.5ZM390.5 20.6484C390.5 20.0962 390.948 19.6484 391.5 19.6484H395.5C396.052 19.6484 396.5 20.0962 396.5 20.6484C396.5 21.2007 396.052 21.6484 395.5 21.6484H391.5C390.948 21.6484 390.5 21.2007 390.5 20.6484ZM391.5 23.6484C390.948 23.6484 390.5 24.0962 390.5 24.6484C390.5 25.2007 390.948 25.6484 391.5 25.6484H395.5C396.052 25.6484 396.5 25.2007 396.5 24.6484C396.5 24.0962 396.052 23.6484 395.5 23.6484H391.5ZM390.5 28.6484C390.5 28.0962 390.948 27.6484 391.5 27.6484H395.5C396.052 27.6484 396.5 28.0962 396.5 28.6484C396.5 29.2007 396.052 29.6484 395.5 29.6484H391.5C390.948 29.6484 390.5 29.2007 390.5 28.6484ZM391.5 31.6484C390.948 31.6484 390.5 32.0962 390.5 32.6484C390.5 33.2007 390.948 33.6484 391.5 33.6484H395.5C396.052 33.6484 396.5 33.2007 396.5 32.6484C396.5 32.0962 396.052 31.6484 395.5 31.6484H391.5ZM390.5 36.6484C390.5 36.0962 390.948 35.6484 391.5 35.6484H395.5C396.052 35.6484 396.5 36.0962 396.5 36.6484C396.5 37.2007 396.052 37.6484 395.5 37.6484H391.5C390.948 37.6484 390.5 37.2007 390.5 36.6484ZM391.5 39.6484C390.948 39.6484 390.5 40.0962 390.5 40.6484C390.5 41.2007 390.948 41.6484 391.5 41.6484H395.5C396.052 41.6484 396.5 41.2007 396.5 40.6484C396.5 40.0962 396.052 39.6484 395.5 39.6484H391.5ZM390.5 44.6484C390.5 44.0962 390.948 43.6484 391.5 43.6484H395.5C396.052 43.6484 396.5 44.0962 396.5 44.6484C396.5 45.2007 396.052 45.6484 395.5 45.6484H391.5C390.948 45.6484 390.5 45.2007 390.5 44.6484ZM391.5 47.6484C390.948 47.6484 390.5 48.0962 390.5 48.6484C390.5 49.2007 390.948 49.6484 391.5 49.6484H395.5C396.052 49.6484 396.5 49.2007 396.5 48.6484C396.5 48.0962 396.052 47.6484 395.5 47.6484H391.5ZM390.5 52.6484C390.5 52.0962 390.948 51.6484 391.5 51.6484H395.5C396.052 51.6484 396.5 52.0962 396.5 52.6484C396.5 53.2007 396.052 53.6484 395.5 53.6484H391.5C390.948 53.6484 390.5 53.2007 390.5 52.6484ZM391.5 55.6484C390.948 55.6484 390.5 56.0962 390.5 56.6484C390.5 57.2007 390.948 57.6484 391.5 57.6484H395.5C396.052 57.6484 396.5 57.2007 396.5 56.6484C396.5 56.0962 396.052 55.6484 395.5 55.6484H391.5ZM390.5 60.6484C390.5 60.0962 390.948 59.6484 391.5 59.6484H395.5C396.052 59.6484 396.5 60.0962 396.5 60.6484C396.5 61.2007 396.052 61.6484 395.5 61.6484H391.5C390.948 61.6484 390.5 61.2007 390.5 60.6484ZM391.5 63.6484C390.948 63.6484 390.5 64.0962 390.5 64.6484C390.5 65.2007 390.948 65.6484 391.5 65.6484H395.5C396.052 65.6484 396.5 65.2007 396.5 64.6484C396.5 64.0962 396.052 63.6484 395.5 63.6484H391.5ZM390.5 68.6484C390.5 68.0962 390.948 67.6484 391.5 67.6484H395.5C396.052 67.6484 396.5 68.0962 396.5 68.6484C396.5 69.2007 396.052 69.6484 395.5 69.6484H391.5C390.948 69.6484 390.5 69.2007 390.5 68.6484ZM391.5 71.6484C390.948 71.6484 390.5 72.0962 390.5 72.6484C390.5 73.2007 390.948 73.6484 391.5 73.6484H395.5C396.052 73.6484 396.5 73.2007 396.5 72.6484C396.5 72.0962 396.052 71.6484 395.5 71.6484H391.5ZM390.5 76.6484C390.5 76.0962 390.948 75.6484 391.5 75.6484H395.5C396.052 75.6484 396.5 76.0962 396.5 76.6484C396.5 77.2007 396.052 77.6484 395.5 77.6484H391.5C390.948 77.6484 390.5 77.2007 390.5 76.6484ZM391.5 79.6484C390.948 79.6484 390.5 80.0962 390.5 80.6484C390.5 81.2007 390.948 81.6484 391.5 81.6484H395.5C396.052 81.6484 396.5 81.2007 396.5 80.6484C396.5 80.0962 396.052 79.6484 395.5 79.6484H391.5ZM390.5 84.6484C390.5 84.0962 390.948 83.6484 391.5 83.6484H395.5C396.052 83.6484 396.5 84.0962 396.5 84.6484C396.5 85.2007 396.052 85.6484 395.5 85.6484H391.5C390.948 85.6484 390.5 85.2007 390.5 84.6484ZM391.5 87.6484C390.948 87.6484 390.5 88.0962 390.5 88.6484C390.5 89.2007 390.948 89.6484 391.5 89.6484H395.5C396.052 89.6484 396.5 89.2007 396.5 88.6484C396.5 88.0962 396.052 87.6484 395.5 87.6484H391.5ZM390.5 92.6484C390.5 92.0962 390.948 91.6484 391.5 91.6484H395.5C396.052 91.6484 396.5 92.0962 396.5 92.6484C396.5 93.2007 396.052 93.6484 395.5 93.6484H391.5C390.948 93.6484 390.5 93.2007 390.5 92.6484ZM391.5 95.6484C390.948 95.6484 390.5 96.0962 390.5 96.6484C390.5 97.2007 390.948 97.6484 391.5 97.6484H395.5C396.052 97.6484 396.5 97.2007 396.5 96.6484C396.5 96.0962 396.052 95.6484 395.5 95.6484H391.5ZM390.5 100.648C390.5 100.096 390.948 99.6484 391.5 99.6484H395.5C396.052 99.6484 396.5 100.096 396.5 100.648C396.5 101.201 396.052 101.648 395.5 101.648H391.5C390.948 101.648 390.5 101.201 390.5 100.648ZM391.5 103.648C390.948 103.648 390.5 104.096 390.5 104.648C390.5 105.201 390.948 105.648 391.5 105.648H395.5C396.052 105.648 396.5 105.201 396.5 104.648C396.5 104.096 396.052 103.648 395.5 103.648H391.5ZM390.5 108.648C390.5 108.096 390.948 107.648 391.5 107.648H395.5C396.052 107.648 396.5 108.096 396.5 108.648C396.5 109.201 396.052 109.648 395.5 109.648H391.5C390.948 109.648 390.5 109.201 390.5 108.648ZM391.5 111.648C390.948 111.648 390.5 112.096 390.5 112.648C390.5 113.201 390.948 113.648 391.5 113.648H395.5C396.052 113.648 396.5 113.201 396.5 112.648C396.5 112.096 396.052 111.648 395.5 111.648H391.5ZM390.5 116.648C390.5 116.096 390.948 115.648 391.5 115.648H395.5C396.052 115.648 396.5 116.096 396.5 116.648C396.5 117.201 396.052 117.648 395.5 117.648H391.5C390.948 117.648 390.5 117.201 390.5 116.648ZM391.5 119.648C390.948 119.648 390.5 120.096 390.5 120.648C390.5 121.201 390.948 121.648 391.5 121.648H395.5C396.052 121.648 396.5 121.201 396.5 120.648C396.5 120.096 396.052 119.648 395.5 119.648H391.5ZM390.5 124.648C390.5 124.096 390.948 123.648 391.5 123.648H395.5C396.052 123.648 396.5 124.096 396.5 124.648C396.5 125.201 396.052 125.648 395.5 125.648H391.5C390.948 125.648 390.5 125.201 390.5 124.648ZM391.5 127.648C390.948 127.648 390.5 128.096 390.5 128.648C390.5 129.201 390.948 129.648 391.5 129.648H395.5C396.052 129.648 396.5 129.201 396.5 128.648C396.5 128.096 396.052 127.648 395.5 127.648H391.5ZM390.5 132.648C390.5 132.096 390.948 131.648 391.5 131.648H395.5C396.052 131.648 396.5 132.096 396.5 132.648C396.5 133.201 396.052 133.648 395.5 133.648H391.5C390.948 133.648 390.5 133.201 390.5 132.648ZM391.5 135.648C390.948 135.648 390.5 136.096 390.5 136.648C390.5 137.201 390.948 137.648 391.5 137.648H395.5C396.052 137.648 396.5 137.201 396.5 136.648C396.5 136.096 396.052 135.648 395.5 135.648H391.5ZM390.5 140.648C390.5 140.096 390.948 139.648 391.5 139.648H395.5C396.052 139.648 396.5 140.096 396.5 140.648C396.5 141.201 396.052 141.648 395.5 141.648H391.5C390.948 141.648 390.5 141.201 390.5 140.648ZM391.5 143.648C390.948 143.648 390.5 144.096 390.5 144.648C390.5 145.201 390.948 145.648 391.5 145.648H395.5C396.052 145.648 396.5 145.201 396.5 144.648C396.5 144.096 396.052 143.648 395.5 143.648H391.5ZM390.5 148.648C390.5 148.096 390.948 147.648 391.5 147.648H395.5C396.052 147.648 396.5 148.096 396.5 148.648C396.5 149.201 396.052 149.648 395.5 149.648H391.5C390.948 149.648 390.5 149.201 390.5 148.648ZM391.5 151.648C390.948 151.648 390.5 152.096 390.5 152.648C390.5 153.201 390.948 153.648 391.5 153.648H395.5C396.052 153.648 396.5 153.201 396.5 152.648C396.5 152.096 396.052 151.648 395.5 151.648H391.5ZM390.5 156.648C390.5 156.096 390.948 155.648 391.5 155.648H395.5C396.052 155.648 396.5 156.096 396.5 156.648C396.5 157.201 396.052 157.648 395.5 157.648H391.5C390.948 157.648 390.5 157.201 390.5 156.648ZM391.5 159.648C390.948 159.648 390.5 160.096 390.5 160.648C390.5 161.201 390.948 161.648 391.5 161.648H395.5C396.052 161.648 396.5 161.201 396.5 160.648C396.5 160.096 396.052 159.648 395.5 159.648H391.5Z" fill="#D9D9D9"/>
<path d="M398.5 6.64844C398.5 4.4393 400.291 2.64844 402.5 2.64844H448.5C456.232 2.64844 462.5 8.91645 462.5 16.6484V149.648C462.5 157.38 456.232 163.648 448.5 163.648H402.5C400.291 163.648 398.5 161.858 398.5 159.648V6.64844Z" fill="#0E464F"/>
<g clip-path="url(#clip0_19_932)">
<path d="M2.5 16.6484C2.5 8.91645 8.76801 2.64844 16.5 2.64844H384.5C386.709 2.64844 388.5 4.4393 388.5 6.64844V159.648C388.5 161.858 386.709 163.648 384.5 163.648H16.5C8.76801 163.648 2.5 157.38 2.5 149.648V16.6484Z" fill="#0E464F"/>
<g filter="url(#filter0_d_19_932)">
<rect x="10.5" y="12.6484" width="120.375" height="117" rx="5.625" fill="#D9D9D9"/>
<rect x="9.375" y="11.5234" width="122.625" height="119.25" rx="6.75" stroke="#0E464F" stroke-width="2.25"/>
</g>
<g opacity="0.3">
<rect width="468" height="16" transform="translate(2 147.648)" fill="white"/>
</g>
</g>
<defs>
<filter id="filter0_d_19_932" x="3.75" y="10.3984" width="133.875" height="135" filterUnits="userSpaceOnUse" color-interpolation-filters="sRGB">
<feFlood flood-opacity="0" result="BackgroundImageFix"/>
<feColorMatrix in="SourceAlpha" type="matrix" values="0 0 0 0 0 0 0 0 0 0 0 0 0 0 0 0 0 0 127 0" result="hardAlpha"/>
<feOffset dy="9"/>
<feGaussianBlur stdDeviation="2.25"/>
<feComposite in2="hardAlpha" operator="out"/>
<feColorMatrix type="matrix" values="0 0 0 0 0.125244 0 0 0 0 0.120007 0 0 0 0 0.120007 0 0 0 0.25 0"/>
<feBlend mode="normal" in2="BackgroundImageFix" result="effect1_dropShadow_19_932"/>
<feBlend mode="normal" in="SourceGraphic" in2="effect1_dropShadow_19_932" result="shape"/>
</filter>
<clipPath id="clip0_19_932">
<path d="M2.5 16.6484C2.5 8.91645 8.76801 2.64844 16.5 2.64844H384.5C386.709 2.64844 388.5 4.4393 388.5 6.64844V159.648C388.5 161.858 386.709 163.648 384.5 163.648H16.5C8.76801 163.648 2.5 157.38 2.5 149.648V16.6484Z" fill="white"/>
</clipPath>
</defs>
</svg>